<?xml version="1.0" encoding="UTF-8"?>
<svg version="1.1" xmlns="http://www.w3.org/2000/svg" width="204" height="192">
<path d="M0 0 C67.32 0 134.64 0 204 0 C204 63.36 204 126.72 204 192 C136.68 192 69.36 192 0 192 C0 128.64 0 65.28 0 0 Z " fill="#ED1A52" transform="translate(0,0)"/>
<path d="M0 0 C1.52278082 1.47686783 3.02412407 2.97625782 4.5 4.5 C5.20511719 5.20769531 5.91023438 5.91539063 6.63671875 6.64453125 C22.39940268 23.30793997 25.20999148 41.37847684 24.67578125 63.41015625 C24.62074226 65.10688987 24.56358452 66.80356513 24.5 68.5 C23.8397583 68.63132324 23.1795166 68.76264648 22.49926758 68.89794922 C20.68493865 69.25965251 18.87090243 69.62282653 17.05712891 69.98730469 C15.23053175 70.35353096 13.40275276 70.71388264 11.57421875 71.0703125 C-10.86314063 76.28488702 -28.11652704 97.98870272 -41.34375 115.625 C-45.65625 121.375 -45.65625 121.375 -47.5 123.5 C-48.16 123.5 -48.82 123.5 -49.5 123.5 C-50.9745512 121.55397212 -52.30555507 119.61209471 -53.625 117.5625 C-54.05312988 116.90934814 -54.48125977 116.25619629 -54.92236328 115.58325195 C-59.83296811 108.06042368 -64.64349167 100.47165182 -69.47314453 92.89672852 C-73.4174477 86.71935574 -77.40853225 80.58080648 -81.5 74.5 C-87.03219443 66.2779619 -92.36627615 57.93434449 -97.68579102 49.57348633 C-101.90864675 42.94707963 -106.18600779 36.36642948 -110.67041016 29.91333008 C-114.40494821 24.44660554 -114.40494821 24.44660554 -114.5 21.5 C-106.09446762 3.40673538 -88.67308634 -8.65014438 -70.5 -15.5 C-46.17339046 -23.05547901 -18.89555248 -16.54809887 0 0 Z " fill="#FDFCFB" transform="translate(150.5,40.5)"/>
<path d="M0 0 C36.96 0 73.92 0 112 0 C108.66581522 6.66836956 105.28244113 13.10416406 101.5 19.5 C98.07894392 25.33309763 94.76007192 31.14912859 91.90234375 37.28515625 C91 39 91 39 89 41 C81.14004301 41.85744985 74.01465885 39.42733342 67.29296875 35.36328125 C65.15808698 33.82965128 65.15808698 33.82965128 63 34 C63.02320313 34.60328125 63.04640625 35.2065625 63.0703125 35.828125 C63.08835938 36.62734375 63.10640625 37.4265625 63.125 38.25 C63.14820313 39.03890625 63.17140625 39.8278125 63.1953125 40.640625 C62.97962391 43.24614317 62.3921178 44.79986977 61 47 C58.21136993 48.39431504 56.07921132 48.25660094 53 48 C50.51613941 44.27420911 50.6195788 42.41288598 51 38 C52.5 35.0625 52.5 35.0625 54 33 C51.29857106 34.32181017 51.29857106 34.32181017 49 37 C48.37741803 40.39640699 48.32119728 43.61164307 49 47 C50.19711065 48.84830376 50.19711065 48.84830376 52 50 C56.89532274 50.63165455 58.8715482 50.79231722 62.9375 47.9375 C65.33635426 44.52094999 65.54210339 42.09214968 66 38 C67.39412109 38.52400391 67.39412109 38.52400391 68.81640625 39.05859375 C70.05261719 39.51363281 71.28882812 39.96867187 72.5625 40.4375 C73.78066406 40.88996094 74.99882813 41.34242187 76.25390625 41.80859375 C79.93350333 42.97885142 83.18299666 43.57261353 87 44 C86.67 45.32 86.34 46.64 86 48 C85.39414063 48.02578125 84.78828125 48.0515625 84.1640625 48.078125 C77.44918326 48.53267067 72.12350753 50.30340953 66 53 C56.7445461 56.0851513 46.61223117 54.05470262 38 50 C33.13360427 47.31409238 28.41269679 44.38132683 24 41 C24 40.34 24 39.68 24 39 C24.87140625 38.91363281 25.7428125 38.82726562 26.640625 38.73828125 C35.92032329 37.64359823 43.8461999 35.35661823 52.0625 30.875 C57.1738884 28.56663105 62.40739849 29.40785627 67.51953125 31.30859375 C69.91759055 32.34187799 72.25237698 33.45229196 74.60546875 34.58984375 C78.12309562 36.05113639 81.22389341 36.62094991 85 37 C85 36.01 85 35.02 85 34 C83.783125 33.938125 82.56625 33.87625 81.3125 33.8125 C77.00883588 33.36519003 73.48756885 32.09625367 69.5 30.4375 C62.38677464 27.62510338 57.90568413 26.50061835 50.65234375 29.28515625 C48.2125491 30.34718451 45.7814324 31.42936981 43.359375 32.53125 C35.90290586 35.79128767 29.07057888 36.30327854 21 36 C20.30777344 34.7625 20.30777344 34.7625 19.6015625 33.5 C15.39884401 26.04113108 11.02475673 18.72286438 6.41455078 11.5078125 C6.01349121 10.87617187 5.61243164 10.24453125 5.19921875 9.59375 C4.84690186 9.04396484 4.49458496 8.49417969 4.1315918 7.92773438 C2.62306257 5.35786453 1.33265835 2.66531671 0 0 Z " fill="#7CC470" transform="translate(44,62)"/>
<path d="M0 0 C22.77 0 45.54 0 69 0 C69 63.36 69 126.72 69 192 C46.23 192 23.46 192 0 192 C2.81203532 190.12530979 5.61787681 188.80121641 8.69897461 187.43774414 C17.42171278 183.54014808 24.65137018 179.16645894 32 173 C32.84820312 172.32582031 33.69640625 171.65164062 34.5703125 170.95703125 C52.06856308 156.3385868 61.33185434 135.84594858 66 114 C66.30550781 112.60007813 66.30550781 112.60007813 66.6171875 111.171875 C67.21187664 106.24445066 67.19131772 101.33383733 67.1875 96.375 C67.1862915 94.76564575 67.1862915 94.76564575 67.18505859 93.1237793 C67.14664679 81.19234386 67.14664679 81.19234386 64.0546875 69.76171875 C63.13372998 67.35017443 62.63436715 65.2533491 62.15625 62.734375 C61.08768364 57.72702335 59.04184567 53.66434997 56.5 49.25 C56.05712646 48.47140625 55.61425293 47.6928125 55.15795898 46.890625 C42.01430466 24.2802856 23.86417123 10.63864578 0 1 C0 0.67 0 0.34 0 0 Z " fill="#FEFCFC" transform="translate(135,0)"/>
<path d="M0 0 C2.89015246 2.61920067 4.85941872 5.62590341 7 8.875 C7.42240967 9.51445557 7.84481934 10.15391113 8.2800293 10.81274414 C9.85792825 13.20551539 11.42918171 15.60257439 13 18 C13.65564941 18.99918457 14.31129883 19.99836914 14.98681641 21.02783203 C18.91834437 27.01987567 22.84534992 33.01486178 26.76953125 39.01171875 C30.8049386 45.17825084 34.84793497 51.33976492 38.89431763 57.49909973 C42.43657986 62.89122398 45.97563089 68.28544487 49.51217651 73.68132019 C51.92723391 77.36575287 54.34722413 81.04688982 56.76953125 84.7265625 C57.78419704 86.27581716 58.79855686 87.82527229 59.8125 89.375 C60.25658203 90.0462793 60.70066406 90.71755859 61.15820312 91.40917969 C64 95.77117239 64 95.77117239 64 98 C50.84246273 99.15416994 35.64873506 92.76880043 25.36914062 84.72363281 C19.39180596 79.70681369 13.72659408 74.220715 9 68 C8.52433594 67.43152344 8.04867187 66.86304688 7.55859375 66.27734375 C-4.45238489 50.50313421 -6.17904688 30.09800269 -4 11 C-1.98043297 1.98043297 -1.98043297 1.98043297 0 0 Z " fill="#7DC26F" transform="translate(33,71)"/>
<path d="M0 0 C0.33 0 0.66 0 1 0 C1.08636719 0.94617188 1.17273438 1.89234375 1.26171875 2.8671875 C4.13321829 31.10480517 15.48397177 56.51389026 37.625 75.0625 C47.17309153 82.38319848 57.41846675 88.55684147 69 92 C69 92.33 69 92.66 69 93 C46.23 93 23.46 93 0 93 C0 62.31 0 31.62 0 0 Z " fill="#FEFCFC" transform="translate(0,99)"/>
<path d="M0 0 C22.44 0 44.88 0 68 0 C65.66851383 2.33148617 63.89912031 2.86698958 60.8125 4 C37.40474735 13.60389851 18.63499447 33.29399051 8.72265625 56.390625 C4.21186697 67.8236161 1.31681454 80.70183546 1 93 C0.67 93 0.34 93 0 93 C0 62.31 0 31.62 0 0 Z " fill="#FEFCFD" transform="translate(0,0)"/>
<path d="M0 0 C0.60585937 0.39832031 1.21171875 0.79664062 1.8359375 1.20703125 C12.56281314 7.98971723 22.2178189 10.43447323 35 9 C38.78825229 8.02603977 42.37145687 6.60638173 45.9765625 5.09375 C48.9081058 4.03324338 50.91986437 3.77099363 54 4 C52.42780431 9.51600859 49.84913785 14.21650543 47.0625 19.1875 C46.58321045 20.05084961 46.1039209 20.91419922 45.61010742 21.80371094 C40.52064425 30.93444135 35.28082894 39.97890549 30 49 C25.83081866 45.39317335 23.52352309 40.99609672 20.875 36.25 C16.52201655 28.58553997 11.99944022 21.06253024 7.2890625 13.61328125 C6.92071289 13.0301416 6.55236328 12.44700195 6.17285156 11.84619141 C5.32149005 10.50605906 4.46313998 9.17035833 3.60058594 7.83740234 C3.14200195 7.12148926 2.68341797 6.40557617 2.2109375 5.66796875 C1.7886084 5.01465576 1.3662793 4.36134277 0.93115234 3.68823242 C0 2 0 2 0 0 Z " fill="#7DC471" transform="translate(73,109)"/>
<path d="M0 0 C0.66 0.33 1.32 0.66 2 1 C-10.00256603 20.1530309 -25.23618539 35.52818459 -48 41 C-50.71562756 41.21794764 -53.26760245 41.0958736 -56 41 C-55.3117537 35.86864469 -53.63293968 34.20874445 -49.74609375 31.0078125 C-44.41826318 27.11235743 -38.77132206 23.72622994 -33.13330078 20.30273438 C-30.38264173 18.62300026 -27.65524442 16.90769288 -24.92822266 15.18994141 C-22.29615033 13.53400187 -19.65607968 11.89114921 -17.01416016 10.25097656 C-15.63246465 9.39281804 -14.25199213 8.53268822 -12.87255859 7.67089844 C-10.79515987 6.37625333 -8.71115843 5.09296966 -6.625 3.8125 C-5.98812256 3.41345459 -5.35124512 3.01440918 -4.69506836 2.60327148 C-3.16634925 1.67304748 -1.58673033 0.82739692 0 0 Z " fill="#7FC06F" transform="translate(167,127)"/>
<path d="M0 0 C-0.875 3.875 -0.875 3.875 -2 5 C-2.30523962 9.65088715 -2.30523962 9.65088715 -1 14 C1.64 14 4.28 14 7 14 C7.06058594 13.32453125 7.12117188 12.6490625 7.18359375 11.953125 C7.26738281 11.06109375 7.35117188 10.1690625 7.4375 9.25 C7.51871094 8.36828125 7.59992188 7.4865625 7.68359375 6.578125 C7.96238465 4.30649548 8.38790577 2.20148177 9 0 C11.52457422 1.00892482 14.04843505 2.01950652 16.5703125 3.03515625 C17.41335937 3.37417969 18.25640625 3.71320313 19.125 4.0625 C19.97320312 4.40410156 20.82140625 4.74570313 21.6953125 5.09765625 C25.22707132 6.48042962 27.91249811 7.11721017 31.6875 7.0625 C32.49574219 7.05347656 33.30398437 7.04445313 34.13671875 7.03515625 C34.75160156 7.02355469 35.36648437 7.01195313 36 7 C36 7.66 36 8.32 36 9 C33.69 9 31.38 9 29 9 C29 9.66 29 10.32 29 11 C23.19834261 10.02541328 18.16017278 8.98746845 13 6 C12.773125 7.051875 12.54625 8.10375 12.3125 9.1875 C11.11937139 13.23590879 9.49217745 15.49474227 6 18 C2.14428207 18.87386052 -0.9861746 18.55760397 -4.5 16.625 C-6.83151715 12.54484499 -6.77641639 8.58237907 -6 4 C-3.14285714 0 -3.14285714 0 0 0 Z " fill="#EDF6EC" transform="translate(98,95)"/>
<path d="M0 0 C3.22132072 1.28410317 6.31469782 1.98568993 9.76953125 2.41015625 C9.76953125 3.40015625 9.76953125 4.39015625 9.76953125 5.41015625 C2.69516632 6.02531842 -3.07707302 3.69250769 -9.2421875 0.3046875 C-13.11609325 -1.43818955 -17.09031067 -1.18892106 -21.23046875 -0.58984375 C-24.73388156 0.79200089 -27.94071156 2.58822475 -31.23046875 4.41015625 C-35.43622081 6.10863304 -38.69752179 6.62601087 -43.23046875 6.41015625 C-43.56046875 5.42015625 -43.89046875 4.43015625 -44.23046875 3.41015625 C-43.12251953 3.17232422 -43.12251953 3.17232422 -41.9921875 2.9296875 C-36.51189855 1.66929068 -31.5862021 0.23712953 -26.54296875 -2.27734375 C-16.57036445 -6.92367075 -9.67114524 -3.95319485 0 0 Z " fill="#F0F7EF" transform="translate(119.23046875,93.58984375)"/>
<path d="M0 0 C2.375 1.625 2.375 1.625 4 4 C4.5 7.0625 4.5 7.0625 4 10 C1.75944941 12.58525068 0.3229668 12.95386189 -3.0625 13.4375 C-6 13 -6 13 -7.875 11.4375 C-9.41099832 8.10950364 -9.40203506 5.61831551 -9 2 C-5.50875983 -0.32749345 -4.10777749 -0.50299316 0 0 Z " fill="#FCE2E5" transform="translate(71,10)"/>
<path d="M0 0 C3.4557601 1.15192003 4.19828537 1.91134634 6 5 C6.5625 7.4375 6.5625 7.4375 6 10 C1.38786566 14.93391116 1.38786566 14.93391116 -2.625 15.125 C-5.76399125 13.63810941 -7.18258355 11.93582657 -9 9 C-7.86085739 5.58257218 -6.93609692 4.87119402 -4.125 2.75 C-3.42632812 2.20859375 -2.72765625 1.6671875 -2.0078125 1.109375 C-1.34523437 0.74328125 -0.68265625 0.3771875 0 0 Z " fill="#FCE8EA" transform="translate(175,38)"/>
<path d="M0 0 C1.875 1.0625 1.875 1.0625 3 3 C3.63316583 8.90954774 3.63316583 8.90954774 1.875 11.9375 C-0.88980433 13.50422245 -2.88188517 13.38976435 -6 13 C-7.875 11.9375 -7.875 11.9375 -9 10 C-9.63316583 4.09045226 -9.63316583 4.09045226 -7.875 1.0625 C-5.11019567 -0.50422245 -3.11811483 -0.38976435 0 0 Z " fill="#FACFD4" transform="translate(83,176)"/>
<path d="M0 0 C2.1610211 3.24153166 2.64247553 4.23692901 2 8 C-0.46001222 10.60058434 -2.07318844 11.84553141 -5.625 12.4375 C-8 12 -8 12 -9.75 10.875 C-11.43985241 8.34022139 -11.66730609 5.99424517 -12 3 C-4.12303665 -0.70680628 -4.12303665 -0.70680628 0 0 Z " fill="#FACCD2" transform="translate(23,119)"/>
<path d="M0 0 C2.91517292 1.07401108 4.77810176 1.77810176 7 4 C7.47171648 7.61649298 7.41791658 9.37312512 5.375 12.4375 C3 14 3 14 -0.0625 13.875 C-3 13 -3 13 -6 11 C-4.54955729 6.89041233 -2.48889248 3.56741255 0 0 Z " fill="#FBD6DA" transform="translate(54,164)"/>
<path d="M0 0 C36.96 0 73.92 0 112 0 C112 0.33 112 0.66 112 1 C111.4452405 1.00238835 110.890481 1.00477671 110.3189106 1.00723743 C96.83223833 1.06632445 83.34574792 1.14202386 69.8592701 1.23571491 C63.33734487 1.28051773 56.81548356 1.31975184 50.29345703 1.34643555 C44.00397661 1.37236978 37.71474084 1.41270156 31.42541122 1.46318626 C29.02117827 1.47992206 26.61690294 1.49139432 24.21261978 1.49761391 C20.85518756 1.50718216 17.49839083 1.53515384 14.14111328 1.56762695 C13.13842407 1.56619186 12.13573486 1.56475677 11.10266113 1.5632782 C10.19118317 1.57581635 9.2797052 1.58835449 8.34060669 1.60127258 C7.14872836 1.60818603 7.14872836 1.60818603 5.93277168 1.61523914 C5.29495703 1.74221023 4.65714237 1.86918131 4 2 C3.01 3.485 3.01 3.485 2 5 C1.34 3.35 0.68 1.7 0 0 Z " fill="#8CCA81" transform="translate(44,62)"/>
<path d="M0 0 C1.32 0.66 2.64 1.32 4 2 C3.01 3.98 2.02 5.96 1 8 C1.99 7.34 2.98 6.68 4 6 C6.6875 6.375 6.6875 6.375 9 7 C7.40758592 11.29951803 4.64459275 13.39671947 1 16 C0.01 15.67 -0.98 15.34 -2 15 C-2 14.34 -2 13.68 -2 13 C-2.66 13 -3.32 13 -4 13 C-3.67 11.35 -3.34 9.7 -3 8 C-3.33 8 -3.66 8 -4 8 C-5.32 8 -6.64 8 -8 8 C-5.33333333 5.33333333 -2.66666667 2.66666667 0 0 Z " fill="#FAD0D6" transform="translate(36,148)"/>
<path d="M0 0 C0.99 0.33 1.98 0.66 3 1 C2.67 3.64 2.34 6.28 2 9 C2.433125 8.505 2.86625 8.01 3.3125 7.5 C5 6 5 6 8 6 C6.63629701 8.99220268 5.05091917 11.29026529 2.875 13.75 C2.06675781 14.67039062 2.06675781 14.67039062 1.2421875 15.609375 C0.83226562 16.06828125 0.42234375 16.5271875 0 17 C-0.99 16.34 -1.98 15.68 -3 15 C-2.67 12.69 -2.34 10.38 -2 8 C-2.99 8.99 -3.98 9.98 -5 11 C-5.99 10.67 -6.98 10.34 -8 10 C-6.34908222 5.70761377 -3.26245434 3.1206085 0 0 Z " fill="#FCE5E8" transform="translate(164,26)"/>
<path d="M0 0 C0.45890625 0.42152344 0.9178125 0.84304687 1.390625 1.27734375 C2.31101563 2.09912109 2.31101563 2.09912109 3.25 2.9375 C3.85328125 3.48277344 4.4565625 4.02804688 5.078125 4.58984375 C7.08467305 6.06212799 8.57002449 6.57529189 11 7 C10.67 7.99 10.34 8.98 10 10 C6.37 10 2.74 10 -1 10 C-0.56852606 15.12111457 -0.56852606 15.12111457 3.0625 17.1875 C4.5165625 18.0846875 4.5165625 18.0846875 6 19 C6 19.66 6 20.32 6 21 C3.59314446 20.53200031 1.22853817 20.06721711 -1.125 19.375 C-3.21447673 18.7958595 -3.21447673 18.7958595 -6 20 C-3.62 9.97 -3.62 9.97 -2 7 C0.125 6.1875 0.125 6.1875 2 6 C1.34 5.34 0.68 4.68 0 4 C0 2.68 0 1.36 0 0 Z " fill="#FCE4E7" transform="translate(183,113)"/>
<path d="M0 0 C1.32 0 2.64 0 4 0 C3.67 0.99 3.34 1.98 3 3 C2.34 3 1.68 3 1 3 C1.33 3.66 1.66 4.32 2 5 C2.37125 4.484375 2.7425 3.96875 3.125 3.4375 C5 2 5 2 8.1875 2.3125 C9.5796875 2.6528125 9.5796875 2.6528125 11 3 C11.25 8.625 11.25 8.625 9 12 C6.375 12.1875 6.375 12.1875 4 12 C4 11.01 4 10.02 4 9 C3.195625 9.020625 2.39125 9.04125 1.5625 9.0625 C-1 9 -1 9 -2 8 C-1.28 1.28 -1.28 1.28 0 0 Z " fill="#F8AFBE" transform="translate(21,49)"/>
<path d="M0 0 C0.66 0 1.32 0 2 0 C2.66 1.65 3.32 3.3 4 5 C6.97 4.34 9.94 3.68 13 3 C12 7 12 7 11 8 C9.33382885 8.04063832 7.66611905 8.042721 6 8 C6 8.99 6 9.98 6 11 C7.32 11.33 8.64 11.66 10 12 C10 12.99 10 13.98 10 15 C4.06 13.515 4.06 13.515 -2 12 C-2.33 10.68 -2.66 9.36 -3 8 C-0.525 8.495 -0.525 8.495 2 9 C1.484375 8.2575 0.96875 7.515 0.4375 6.75 C-1 4 -1 4 -0.6875 1.6875 C-0.3471875 0.8521875 -0.3471875 0.8521875 0 0 Z " fill="#FBDCE0" transform="translate(15,61)"/>
<path d="M0 0 C1.63001953 0.01353516 1.63001953 0.01353516 3.29296875 0.02734375 C4.12441406 0.03894531 4.95585938 0.05054688 5.8125 0.0625 C5.1525 0.7225 4.4925 1.3825 3.8125 2.0625 C3.35402311 4.42280696 2.99106869 6.8023174 2.6875 9.1875 C2.43613281 11.10949219 2.43613281 11.10949219 2.1796875 13.0703125 C2.05851562 14.05773438 1.93734375 15.04515625 1.8125 16.0625 C1.1525 16.0625 0.4925 16.0625 -0.1875 16.0625 C-1.19234204 14.10664675 -2.19123805 12.14773763 -3.1875 10.1875 C-3.744375 9.09695313 -4.30125 8.00640625 -4.875 6.8828125 C-6.1875 4.0625 -6.1875 4.0625 -6.1875 2.0625 C-7.1775 1.7325 -8.1675 1.4025 -9.1875 1.0625 C-5.90230525 -0.03256492 -3.45086585 -0.03710608 0 0 Z " fill="#EC114D" transform="translate(101.1875,-0.0625)"/>
<path d="M0 0 C1.11375 0.1546875 1.11375 0.1546875 2.25 0.3125 C2.58 1.9625 2.91 3.6125 3.25 5.3125 C5.23 5.3125 7.21 5.3125 9.25 5.3125 C8.92 6.3025 8.59 7.2925 8.25 8.3125 C5.94 7.9825 3.63 7.6525 1.25 7.3125 C1.745 7.93125 2.24 8.55 2.75 9.1875 C4.25 11.3125 4.25 11.3125 4.25 13.3125 C1.337425 13.22683603 -0.31798024 12.73339045 -2.41796875 10.6875 C-3.91091772 8.92858625 -5.35436262 7.14936981 -6.75 5.3125 C-3.42692308 0.38942308 -3.42692308 0.38942308 0 0 Z " fill="#F9BBC7" transform="translate(167.75,148.6875)"/>
<path d="M0 0 C2.97 0.33 5.94 0.66 9 1 C9.33 2.65 9.66 4.3 10 6 C9.34 6 8.68 6 8 6 C7.67 6.99 7.34 7.98 7 9 C5.35 8.67 3.7 8.34 2 8 C2 8.99 2 9.98 2 11 C5.465 10.505 5.465 10.505 9 10 C9 10.99 9 11.98 9 13 C6.03 13 3.06 13 0 13 C0 8.71 0 4.42 0 0 Z " fill="#F9C8CE" transform="translate(92,178)"/>
<path d="M0 0 C0.90105469 0.00902344 1.80210937 0.01804687 2.73046875 0.02734375 C3.41753906 0.03894531 4.10460937 0.05054687 4.8125 0.0625 C4.0703125 3.84375 4.0703125 3.84375 1.75 5.8125 C1.110625 6.225 0.47125 6.6375 -0.1875 7.0625 C2.7825 7.5575 2.7825 7.5575 5.8125 8.0625 C5.8125 8.7225 5.8125 9.3825 5.8125 10.0625 C1.04942563 11.01511487 -3.3541528 11.14583357 -8.1875 11.0625 C-8 9.25 -8 9.25 -7.1875 7.0625 C-4.625 5.3125 -4.625 5.3125 -2.1875 4.0625 C-5.1575 3.5675 -5.1575 3.5675 -8.1875 3.0625 C-8.1875 2.4025 -8.1875 1.7425 -8.1875 1.0625 C-5.17259443 0.05753148 -3.14568308 -0.04085303 0 0 Z " fill="#FCE3E5" transform="translate(191.1875,83.9375)"/>
<path d="M0 0 C0.33 0.99 0.66 1.98 1 3 C-0.32 3.99 -1.64 4.98 -3 6 C-1.16116119 8.28728734 -1.16116119 8.28728734 1.625 8.125 C2.40875 8.08375 3.1925 8.0425 4 8 C4 8.99 4 9.98 4 11 C2.39850114 11.67305018 0.79368971 12.33822227 -0.8125 13 C-1.70582031 13.37125 -2.59914062 13.7425 -3.51953125 14.125 C-6 15 -6 15 -9 15 C-9 14.01 -9 13.02 -9 12 C-7.68 11.67 -6.36 11.34 -5 11 C-5.66 9.68 -6.32 8.36 -7 7 C-8.65 7.33 -10.3 7.66 -12 8 C-12 7.01 -12 6.02 -12 5 C-10.37750059 4.16180842 -8.75191503 3.3295884 -7.125 2.5 C-6.22007812 2.0359375 -5.31515625 1.571875 -4.3828125 1.09375 C-2 0 -2 0 0 0 Z " fill="#FBDCDF" transform="translate(186,52)"/>
<path d="M0 0 C2.97 0 5.94 0 9 0 C9 0.99 9 1.98 9 3 C7.02 3 5.04 3 3 3 C3 3.66 3 4.32 3 5 C4.98 5 6.96 5 9 5 C9 5.99 9 6.98 9 8 C7.02 8 5.04 8 3 8 C3 8.66 3 9.32 3 10 C5.31 10 7.62 10 10 10 C10 10.99 10 11.98 10 13 C6.7 13 3.4 13 0 13 C0 8.71 0 4.42 0 0 Z " fill="#FCE5E7" transform="translate(104,178)"/>
<path d="M0 0 C1.32 0 2.64 0 4 0 C4.99 1.98 5.98 3.96 7 6 C7.33 4.02 7.66 2.04 8 0 C8.99 0 9.98 0 11 0 C10.67 4.29 10.34 8.58 10 13 C9.01 13 8.02 13 7 13 C4.8125 10.5 4.8125 10.5 3 8 C2.67 9.65 2.34 11.3 2 13 C1.34 13 0.68 13 0 13 C0 8.71 0 4.42 0 0 Z " fill="#FCE1E4" transform="translate(104,3)"/>
<path d="M0 0 C5.5952381 0.5952381 5.5952381 0.5952381 8 3 C8 3.99 8 4.98 8 6 C5 6 5 6 3.3125 4.5 C2.879375 4.005 2.44625 3.51 2 3 C4.0625 5.1875 4.0625 5.1875 6 8 C5.70731707 12.29268293 5.70731707 12.29268293 4 14 C1.66055264 13.71269945 -0.6739143 13.38063221 -3 13 C-3.33 11.02 -3.66 9.04 -4 7 C-3.01 7.33 -2.02 7.66 -1 8 C-1 8.99 -1 9.98 -1 11 C0.32 11 1.64 11 3 11 C1.7315625 9.63875 1.7315625 9.63875 0.4375 8.25 C-2.0175506 5.32468618 -2.0175506 5.32468618 -1.875 2.6875 C-1 1 -1 1 0 0 Z " fill="#FCE6E8" transform="translate(137,10)"/>
<path d="M0 0 C4.30764815 1.56641751 8.06171464 3.68336156 12 6 C12 6.66 12 7.32 12 8 C9.69 8.33 7.38 8.66 5 9 C5 10.65 5 12.3 5 14 C4.01 14.33 3.02 14.66 2 15 C1.46467177 13.44240657 0.94734622 11.87861955 0.4375 10.3125 C0.14746094 9.44238281 -0.14257812 8.57226562 -0.44140625 7.67578125 C-1.05141961 4.75368926 -0.77703633 2.85599447 0 0 Z " fill="#FDF3F4" transform="translate(41,25)"/>
<path d="M0 0 C-0.30852185 1.958964 -0.6219418 3.91715713 -0.9375 5.875 C-1.11152344 6.96554688 -1.28554687 8.05609375 -1.46484375 9.1796875 C-2 12 -2 12 -3 14 C-3.99 13.67 -4.98 13.34 -6 13 C-7.1875 10.4375 -7.1875 10.4375 -8 8 C-9.65 8 -11.3 8 -13 8 C-11.60632076 4.62772951 -10.15724701 3.09506287 -7.0625 1.1875 C-6.37285156 0.74792969 -5.68320313 0.30835937 -4.97265625 -0.14453125 C-3 -1 -3 -1 0 0 Z " fill="#FCE7E9" transform="translate(157,19)"/>
<path d="M0 0 C4.29 0.33 8.58 0.66 13 1 C13.33 2.32 13.66 3.64 14 5 C12.3790787 6.17232685 10.75313167 7.3377077 9.125 8.5 C8.22007812 9.1496875 7.31515625 9.799375 6.3828125 10.46875 C4 12 4 12 2 12 C2.33 9.36 2.66 6.72 3 4 C2.01 3.67 1.02 3.34 0 3 C0 2.01 0 1.02 0 0 Z " fill="#FCEAEC" transform="translate(180,70)"/>
<path d="M0 0 C3.33135891 0.59699131 5.21275667 1.72012281 7.75 3.9375 C8.36359375 4.46214844 8.9771875 4.98679687 9.609375 5.52734375 C11 7 11 7 11 9 C8.69 8.67 6.38 8.34 4 8 C4.57584432 10.38564077 5.22227595 12.66682784 6 15 C2.93674247 14.39005934 0.79949366 13.42271989 -1.75 11.625 C-2.36359375 11.20476563 -2.9771875 10.78453125 -3.609375 10.3515625 C-4.06828125 9.90554687 -4.5271875 9.45953125 -5 9 C-5 8.01 -5 7.02 -5 6 C-2.03 6.495 -2.03 6.495 1 7 C1.33 6.01 1.66 5.02 2 4 C1.34 3.67 0.68 3.34 0 3 C0 2.01 0 1.02 0 0 Z " fill="#FCE3E6" transform="translate(31,35)"/>
<path d="M0 0 C1.828125 0.19140625 1.828125 0.19140625 4 1 C5.484375 3.21484375 5.484375 3.21484375 6.75 5.9375 C7.17796875 6.83339844 7.6059375 7.72929687 8.046875 8.65234375 C9 11 9 11 9 13 C7.68 12.67 6.36 12.34 5 12 C5 11.34 5 10.68 5 10 C2.52733235 10.34444881 2.52733235 10.34444881 0 11 C-0.33 11.66 -0.66 12.32 -1 13 C-1.99 13 -2.98 13 -4 13 C-3.52343588 11.20763933 -3.04366502 9.41613103 -2.5625 7.625 C-2.29566406 6.62726562 -2.02882813 5.62953125 -1.75390625 4.6015625 C-1 2 -1 2 0 0 Z " fill="#FBD5DA" transform="translate(92,3)"/>
<path d="M0 0 C0.99 0.33 1.98 0.66 3 1 C3.94921875 3.28515625 3.94921875 3.28515625 4.6875 6.0625 C5.06455078 7.44115234 5.06455078 7.44115234 5.44921875 8.84765625 C5.63097656 9.55792969 5.81273437 10.26820313 6 11 C2.23312136 11 1.08809695 10.76462683 -2 9 C-1.67 10.65 -1.34 12.3 -1 14 C-1.99 14 -2.98 14 -4 14 C-4.50367757 12.54293274 -5.00282556 11.08429904 -5.5 9.625 C-5.7784375 8.81289062 -6.056875 8.00078125 -6.34375 7.1640625 C-7 5 -7 5 -7 3 C-3.62537285 3.54723683 -1.91765 4.0549 1 6 C0.67 4.02 0.34 2.04 0 0 Z " fill="#FDEEF0" transform="translate(137,171)"/>
<path d="M0 0 C1.7941758 2.56310828 2 3.83119306 2 7 C1.01 6.67 0.02 6.34 -1 6 C-1.6875 3.9375 -1.6875 3.9375 -2 2 C-2.66 2 -3.32 2 -4 2 C-3.67 2.598125 -3.34 3.19625 -3 3.8125 C-2 6 -2 6 -2 9 C-3.32 8.34 -4.64 7.68 -6 7 C-6 6.01 -6 5.02 -6 4 C-6.66 4.66 -7.32 5.32 -8 6 C-7.67801034 9.09926819 -7.67801034 9.09926819 -7 12 C-7.66 12 -8.32 12 -9 12 C-11.97833935 6.75812274 -11.97833935 6.75812274 -12.0625 3.8125 C-9.46718117 -0.61480859 -4.58691726 -1.91121553 0 0 Z " fill="#FBDCDF" transform="translate(28,131)"/>
<path d="M0 0 C0.66 0 1.32 0 2 0 C1.42415568 2.38564077 0.77772405 4.66682784 0 7 C0.66 6.67 1.32 6.34 2 6 C2.268125 5.175 2.53625 4.35 2.8125 3.5 C4 1 4 1 6.5 0.0625 C7.325 0.041875 8.15 0.02125 9 0 C11 2 11 2 11.125 5.625 C11.08375 6.73875 11.0425 7.8525 11 9 C9.35 9.66 7.7 10.32 6 11 C6.33 9.68 6.66 8.36 7 7 C7.66 7 8.32 7 9 7 C8.67 6.01 8.34 5.02 8 4 C7.34 3.67 6.68 3.34 6 3 C5.87625 3.78375 5.7525 4.5675 5.625 5.375 C5 8 5 8 3 10 C-0.53571429 9.46428571 -0.53571429 9.46428571 -2 8 C-2.1875 5.0625 -2.1875 5.0625 -2 2 C-1.34 1.34 -0.68 0.68 0 0 Z " fill="#FCE7E9" transform="translate(11,85)"/>
<path d="M0 0 C0.99 0 1.98 0 3 0 C4.59138085 4.17737474 5.21278058 7.53160785 5 12 C2.42786866 13.61949011 1.32330841 14.04408751 -1.75 13.625 C-2.86375 13.315625 -2.86375 13.315625 -4 13 C-4.50367757 11.54293274 -5.00282556 10.08429904 -5.5 8.625 C-5.7784375 7.81289062 -6.056875 7.00078125 -6.34375 6.1640625 C-7 4 -7 4 -7 2 C-5.68 2.33 -4.36 2.66 -3 3 C-2.67 5.64 -2.34 8.28 -2 11 C-0.68 11 0.64 11 2 11 C1.67 9.9275 1.34 8.855 1 7.75 C0 4 0 4 0 0 Z " fill="#FCE4E7" transform="translate(125,175)"/>
<path d="M0 0 C3.34249629 0.59687434 5.46436342 1.73603877 8 4 C8 4.66 8 5.32 8 6 C5.03824877 5.38722388 3.61941217 4.74627478 1 3 C2.98 5.97 2.98 5.97 5 9 C1 9 1 9 -2 7 C-1.24849977 10.27773504 -1.24849977 10.27773504 2 12 C2 12.66 2 13.32 2 14 C-1.35595828 13.40072174 -3.37801226 12.15377564 -6 10 C-5.49477778 5.62140745 -2.82172778 3.18348776 0 0 Z " fill="#FBDADE" transform="translate(45,158)"/>
<path d="M0 0 C1.875 0.625 1.875 0.625 4 2 C5.25 5.125 5.25 5.125 6 8 C5.01 7.67 4.02 7.34 3 7 C2.67 6.34 2.34 5.68 2 5 C1.34 5 0.68 5 0 5 C0.99 6.485 0.99 6.485 2 8 C2 8.99 2 9.98 2 11 C-0.99332739 10.0022242 -1.94766315 9.2477975 -4 7 C-3.34 9.31 -2.68 11.62 -2 14 C-2.99 14 -3.98 14 -5 14 C-8.10091516 10.01310908 -8.10091516 10.01310908 -7.80078125 7 C-6.79744612 4.49410933 -5.67715222 3.71595418 -3.4375 2.25 C-2.79683594 1.82203125 -2.15617187 1.3940625 -1.49609375 0.953125 C-1.00238281 0.63859375 -0.50867188 0.3240625 0 0 Z " fill="#FBDDE0" transform="translate(30,139)"/>
<path d="M0 0 C0.99 0 1.98 0 3 0 C2.34 3.63 1.68 7.26 1 11 C2.32 10.67 3.64 10.34 5 10 C5.66 7.36 6.32 4.72 7 2 C7.99 2 8.98 2 10 2 C9.91253716 3.43861294 9.80434652 4.87597508 9.6875 6.3125 C9.62949219 7.11300781 9.57148438 7.91351563 9.51171875 8.73828125 C8.90874776 11.40332096 8.15656709 12.36038241 6 14 C2.25150923 14.46856135 1.23253796 14.15502531 -2 12 C-1.85962479 10.18706911 -1.71255111 8.3746557 -1.5625 6.5625 C-1.48128906 5.55316406 -1.40007812 4.54382813 -1.31640625 3.50390625 C-1 1 -1 1 0 0 Z " fill="#FDEDEF" transform="translate(121,5)"/>
<path d="M0 0 C-0.33 0.61875 -0.66 1.2375 -1 1.875 C-2.14193235 3.91018344 -2.14193235 3.91018344 -2 6 C-1.34 5.34 -0.68 4.68 0 4 C0.99 4 1.98 4 3 4 C2.34 5.32 1.68 6.64 1 8 C0.34 8 -0.32 8 -1 8 C-0.67 8.66 -0.34 9.32 0 10 C0.598125 9.67 1.19625 9.34 1.8125 9 C4 8 4 8 7 8 C7 8.66 7 9.32 7 10 C4.75 12.1875 4.75 12.1875 2 14 C-0.81292172 13.81023941 -1.78113056 13.23744322 -3.703125 11.15234375 C-4.21359375 10.42144531 -4.7240625 9.69054687 -5.25 8.9375 C-5.77078125 8.20402344 -6.2915625 7.47054687 -6.828125 6.71484375 C-7.21484375 6.14894531 -7.6015625 5.58304688 -8 5 C-2.25 0 -2.25 0 0 0 Z " fill="#FCE3E5" transform="translate(161,156)"/>
<path d="M0 0 C0 0.33 0 0.66 0 1 C-2.64 1.33 -5.28 1.66 -8 2 C-8 2.66 -8 3.32 -8 4 C-10.24732102 4.84124316 -12.49738785 5.67314832 -14.75 6.5 C-15.38421875 6.73847656 -16.0184375 6.97695312 -16.671875 7.22265625 C-20.03286607 8.44801758 -22.36871587 9 -26 9 C-26 8.34 -26 7.68 -26 7 C-28.31 7 -30.62 7 -33 7 C-33 6.67 -33 6.34 -33 6 C-32.17757812 5.90203125 -31.35515625 5.8040625 -30.5078125 5.703125 C-24.96040065 4.96005367 -19.93953325 4.1809384 -14.8125 1.875 C-9.81494254 -0.34066587 -5.39430476 -0.41318079 0 0 Z " fill="#ECF5EA" transform="translate(130,110)"/>
<path d="M0 0 C1.32 0 2.64 0 4 0 C4 0.66 4 1.32 4 2 C3.01 2.33 2.02 2.66 1 3 C0.67 3.99 0.34 4.98 0 6 C0.721875 5.319375 1.44375 4.63875 2.1875 3.9375 C5 2 5 2 7.8125 2.25 C8.8953125 2.62125 8.8953125 2.62125 10 3 C10.125 5.875 10.125 5.875 10 9 C8 11 8 11 5.375 11.125 C4.59125 11.08375 3.8075 11.0425 3 11 C4 9 4 9 7 8 C7.33 7.01 7.66 6.02 8 5 C7.46375 5.495 6.9275 5.99 6.375 6.5 C3.40641555 8.37489544 1.44687573 8.23501425 -2 8 C-2.125 5.125 -2.125 5.125 -2 2 C-1.34 1.34 -0.68 0.68 0 0 Z " fill="#FCE5E8" transform="translate(172,140)"/>
<path d="M0 0 C2.74953946 2.74953946 3.17042807 5.2350197 4 9 C3.625 11.9375 3.625 11.9375 3 14 C-0.43927579 12.7580393 -3.25207819 11.44259716 -6 9 C-6 8.34 -6 7.68 -6 7 C-6.66 7 -7.32 7 -8 7 C-8 6.34 -8 5.68 -8 5 C-5.03824877 5.61277612 -3.61941217 6.25372522 -1 8 C-1.020625 6.865625 -1.04125 5.73125 -1.0625 4.5625 C-1 1 -1 1 0 0 Z " fill="#FCE6E8" transform="translate(152,162)"/>
<path d="M0 0 C0.93423645 3.01031744 1.04449911 3.86650268 0 7 C3.26954202 6.43628586 4.82575883 5.50037734 7 3 C7.22417836 5.7648665 7.32233508 7.46277487 5.875 9.875 C4 11 4 11 1 10.8125 C-2 10 -2 10 -5 8 C-3.8141763 4.62496331 -2.72426311 2.35277269 0 0 Z " fill="#FCE3E6" transform="translate(53,167)"/>
<path d="M0 0 C2.97 0.99 5.94 1.98 9 3 C8.67 3.99 8.34 4.98 8 6 C7.01 5.67 6.02 5.34 5 5 C4.731875 5.928125 4.46375 6.85625 4.1875 7.8125 C3.08851629 10.76240366 2.37581439 12.05615186 0 14 C-0.95465783 11.83032311 -1.14401212 10.43671207 -0.3984375 8.17578125 C0.35870385 6.4315257 1.17609198 4.71372869 2 3 C1.01 3 0.02 3 -1 3 C-0.67 2.01 -0.34 1.02 0 0 Z " fill="#FBDEE1" transform="translate(67,171)"/>
<path d="M0 0 C0.33 0.99 0.66 1.98 1 3 C3.31 2.34 5.62 1.68 8 1 C7.67 2.65 7.34 4.3 7 6 C4.03 5.505 4.03 5.505 1 5 C1 5.99 1 6.98 1 8 C4.465 7.505 4.465 7.505 8 7 C8 7.99 8 8.98 8 10 C5.03 10 2.06 10 -1 10 C-1.125 3.375 -1.125 3.375 0 0 Z " fill="#FDECEE" transform="translate(93,181)"/>
<path d="M0 0 C1.32 0 2.64 0 4 0 C3.67 0.99 3.34 1.98 3 3 C2.34 3 1.68 3 1 3 C1 3.66 1 4.32 1 5 C3.38564077 4.42415568 5.66682784 3.77772405 8 3 C8 3.66 8 4.32 8 5 C7.34 5 6.68 5 6 5 C5.34 6.32 4.68 7.64 4 9 C2.33388095 9.042721 0.66617115 9.04063832 -1 9 C-1.33 8.67 -1.66 8.34 -2 8 C-1.28 1.28 -1.28 1.28 0 0 Z " fill="#FCE7E9" transform="translate(21,49)"/>
<path d="M0 0 C1.32 0.66 2.64 1.32 4 2 C2.02 4.97 2.02 4.97 0 8 C-0.66 7.67 -1.32 7.34 -2 7 C-2.99 7.66 -3.98 8.32 -5 9 C-5.99 8.67 -6.98 8.34 -8 8 C-5.33333333 5.33333333 -2.66666667 2.66666667 0 0 Z " fill="#FCE6E8" transform="translate(36,148)"/>
<path d="M0 0 C0.6875 3.3125 0.6875 3.3125 1 7 C-0.3125 8.9375 -0.3125 8.9375 -2 10 C-2.66 10 -3.32 10 -4 10 C-3.33333333 7.33333333 -2.66666667 4.66666667 -2 2 C-4.64 2.33 -7.28 2.66 -10 3 C-6.74534559 -0.25465441 -4.4822096 -1.60078914 0 0 Z " fill="#FACFD4" transform="translate(24,120)"/>
<path d="M0 0 C1.98 0.495 1.98 0.495 4 1 C4 1.66 4 2.32 4 3 C4.99 3.33 5.98 3.66 7 4 C5.68 4.33 4.36 4.66 3 5 C3 6.65 3 8.3 3 10 C2.01 10.33 1.02 10.66 0 11 C-0.19491452 9.54263913 -0.38069358 8.08405407 -0.5625 6.625 C-0.66691406 5.81289063 -0.77132812 5.00078125 -0.87890625 4.1640625 C-1 2 -1 2 0 0 Z " fill="#F9C2CA" transform="translate(43,29)"/>
<path d="M0 0 C0.99 0.33 1.98 0.66 3 1 C2.67 1.99 2.34 2.98 2 4 C2 3.34 2 2.68 2 2 C0.35429841 3.05630262 0.35429841 3.05630262 -1 5 C-1.04166002 7.3329614 -1.04166002 9.6670386 -1 12 C-1.99 13.485 -1.99 13.485 -3 15 C-2.67 12.69 -2.34 10.38 -2 8 C-2.99 8.99 -3.98 9.98 -5 11 C-5.99 10.67 -6.98 10.34 -8 10 C-6.34908222 5.70761377 -3.26245434 3.1206085 0 0 Z " fill="#F9C8CE" transform="translate(164,26)"/>
<path d="M0 0 C0 0.66 0 1.32 0 2 C-0.65226562 2.04898438 -1.30453125 2.09796875 -1.9765625 2.1484375 C-6.93279853 2.57242229 -11.33019451 3.15665573 -16 5 C-15.06896676 2.67241689 -14.34617872 1.25642868 -12.3125 -0.25 C-8.0855234 -1.62091133 -4.1767959 -1.3922653 0 0 Z " fill="#FAD6DA" transform="translate(23,115)"/>
<path d="M0 0 C3.69230769 0.69230769 3.69230769 0.69230769 5 2 C5.04080783 3.99958364 5.04254356 6.00045254 5 8 C3.33388095 8.042721 1.66617115 8.04063832 0 8 C-1 7 -1 7 -1.125 4 C-1 1 -1 1 0 0 Z " fill="#EC1952" transform="translate(66,12)"/>
<path d="M0 0 C2.5625 1.4375 2.5625 1.4375 4 3 C4 3.66 4 4.32 4 5 C3.21625 4.690625 2.4325 4.38125 1.625 4.0625 C-2.89851578 2.73664193 -7.31431814 2.35188915 -12 2 C-12 1.34 -12 0.68 -12 0 C-7.83482725 -1.38839092 -4.26222937 -0.8847588 0 0 Z " fill="#FAD0D5" transform="translate(195,110)"/>
<path d="M0 0 C4.29 0.66 8.58 1.32 13 2 C13 2.99 13 3.98 13 5 C11.20793453 4.85915204 9.41635083 4.71216299 7.625 4.5625 C6.62726562 4.48128906 5.62953125 4.40007812 4.6015625 4.31640625 C2 4 2 4 0 3 C0 2.01 0 1.02 0 0 Z " fill="#FBD7DB" transform="translate(10,77)"/>
<path d="M0 0 C1.32 0.33 2.64 0.66 4 1 C4.33 3.64 4.66 6.28 5 9 C5.99 9.33 6.98 9.66 8 10 C8 10.66 8 11.32 8 12 C6.35 11.67 4.7 11.34 3 11 C2.49632243 9.54293274 1.99717444 8.08429904 1.5 6.625 C1.2215625 5.81289062 0.943125 5.00078125 0.65625 4.1640625 C0 2 0 2 0 0 Z " fill="#F9C7CE" transform="translate(118,177)"/>
<path d="M0 0 C2.125 0.375 2.125 0.375 4 1 C3.67 3.31 3.34 5.62 3 8 C1.35 7.67 -0.3 7.34 -2 7 C-2.125 4.625 -2.125 4.625 -2 2 C-1.34 1.34 -0.68 0.68 0 0 Z " fill="#ED2256" transform="translate(79,178)"/>
<path d="M0 0 C0.33 0 0.66 0 1 0 C1.07409401 3.95092059 1.12857406 7.90157294 1.16479492 11.85302734 C1.18732251 13.85919374 1.2254357 15.86516526 1.26367188 17.87109375 C1.27333984 19.12792969 1.28300781 20.38476562 1.29296875 21.6796875 C1.3086792 22.84226074 1.32438965 24.00483398 1.34057617 25.20263672 C1.22818604 26.1257666 1.1157959 27.04889648 1 28 C0.01 28.66 -0.98 29.32 -2 30 C-1.34 20.1 -0.68 10.2 0 0 Z " fill="#FAD0D5" transform="translate(203,88)"/>
<path d="M0 0 C0.33 1.65 0.66 3.3 1 5 C-0.32 5.99 -1.64 6.98 -3 8 C-4.32 7.34 -5.64 6.68 -7 6 C-5.52522876 2.59668175 -4.14385429 0 0 0 Z " fill="#ED2559" transform="translate(177,42)"/>
<path d="M0 0 C0.66 0 1.32 0 2 0 C3.49297212 2.98594424 3.11755228 5.70853624 3 9 C2.67 9.66 2.34 10.32 2 11 C1.01 10.67 0.02 10.34 -1 10 C-2.23076923 4.58461538 -2.23076923 4.58461538 -1.0625 1.625 C-0.5365625 0.820625 -0.5365625 0.820625 0 0 Z " fill="#FAC8D0" transform="translate(152,22)"/>
<path d="M0 0 C-2.85584773 1.90389849 -4.9311762 2.69462177 -8.1875 3.625 C-9.08855469 3.88539062 -9.98960938 4.14578125 -10.91796875 4.4140625 C-11.94857422 4.70410156 -11.94857422 4.70410156 -13 5 C-13.66 4.34 -14.32 3.68 -15 3 C-10.27805833 -0.77755334 -5.74071928 -0.30096975 0 0 Z " fill="#EC0B47" transform="translate(23,117)"/>
<path d="M0 0 C4.29 0.33 8.58 0.66 13 1 C11.02 1.99 11.02 1.99 9 3 C8.67 3.99 8.34 4.98 8 6 C7.236875 5.690625 6.47375 5.38125 5.6875 5.0625 C3.81210323 4.32106407 1.91315348 3.63771783 0 3 C0 2.01 0 1.02 0 0 Z " fill="#F9C1C9" transform="translate(180,70)"/>
<path d="M0 0 C3.79303725 1.00193437 6.71536341 1.81024227 10 4 C10 4.66 10 5.32 10 6 C7.59314446 5.53200031 5.22853817 5.06721711 2.875 4.375 C0.78552327 3.7958595 0.78552327 3.7958595 -2 5 C-1.34 3.35 -0.68 1.7 0 0 Z " fill="#FCE4E7" transform="translate(179,128)"/>
<path d="M0 0 C-0.875 4.875 -0.875 4.875 -2 6 C-3.66617115 6.04063832 -5.33388095 6.042721 -7 6 C-7 4.35 -7 2.7 -7 1 C-4 0 -4 0 0 0 Z " fill="#EE3361" transform="translate(22,122)"/>
<path d="M0 0 C2.97 0 5.94 0 9 0 C9 0.99 9 1.98 9 3 C3.25 3.125 3.25 3.125 1 2 C1 5.63 1 9.26 1 13 C0.67 13 0.34 13 0 13 C0 8.71 0 4.42 0 0 Z " fill="#F8C1C7" transform="translate(104,178)"/>
<path d="M0 0 C3.33571429 1.11190476 3.58417079 1.46320673 5.1875 4.375 C5.70376953 5.28378906 5.70376953 5.28378906 6.23046875 6.2109375 C7 8 7 8 7 11 C6.01 11 5.02 11 4 11 C3.32591692 9.73308493 2.66099503 8.46129251 2 7.1875 C1.62875 6.47980469 1.2575 5.77210938 0.875 5.04296875 C0 3 0 3 0 0 Z " fill="#FCE1E3" transform="translate(141,169)"/>
<path d="M0 0 C0.763125 0.20625 1.52625 0.4125 2.3125 0.625 C0.82152342 4.4202131 -1.44450849 6.23542731 -4.6875 8.625 C-5.3475 8.295 -6.0075 7.965 -6.6875 7.625 C-5.3675 6.305 -4.0475 4.985 -2.6875 3.625 C-3.6775 2.965 -4.6675 2.305 -5.6875 1.625 C-2.6875 -0.375 -2.6875 -0.375 0 0 Z " fill="#FCE9EB" transform="translate(42.6875,154.375)"/>
<path d="M0 0 C0.33 0 0.66 0 1 0 C1 2.97 1 5.94 1 9 C4.3 9 7.6 9 11 9 C11 9.33 11 9.66 11 10 C3.74 10 -3.52 10 -11 10 C-11 9.67 -11 9.34 -11 9 C-10.36191406 8.93941406 -9.72382812 8.87882813 -9.06640625 8.81640625 C-8.24011719 8.73261719 -7.41382812 8.64882812 -6.5625 8.5625 C-5.73878906 8.48128906 -4.91507812 8.40007812 -4.06640625 8.31640625 C-2.01337975 8.21069185 -2.01337975 8.21069185 -1 7 C-0.63239269 4.67182036 -0.29758419 2.3381615 0 0 Z " fill="#EC0445" transform="translate(103,182)"/>
<path d="M0 0 C0.66 0.33 1.32 0.66 2 1 C-2.62 5.62 -7.24 10.24 -12 15 C-12.66 14.67 -13.32 14.34 -14 14 C-12.60919892 12.41224451 -11.21211596 10.82999061 -9.8125 9.25 C-8.64654297 7.92742188 -8.64654297 7.92742188 -7.45703125 6.578125 C-5.11544754 4.12113732 -2.69841735 2.05137234 0 0 Z " fill="#FCE4E6" transform="translate(56,38)"/>
<path d="M0 0 C1.32 0.33 2.64 0.66 4 1 C4 2.32 4 3.64 4 5 C5.98 5 7.96 5 10 5 C9.67 5.99 9.34 6.98 9 8 C6.36 7.67 3.72 7.34 1 7 C1.33 5.35 1.66 3.7 2 2 C1.34 2 0.68 2 0 2 C0 1.34 0 0.68 0 0 Z " fill="#FDF0F1" transform="translate(167,149)"/>
<path d="M0 0 C4.12751449 0.60698743 7.3321148 2.03810791 11 4 C11 4.99 11 5.98 11 7 C9.5410574 6.52269162 8.08286504 6.04308958 6.625 5.5625 C5.81289062 5.29566406 5.00078125 5.02882812 4.1640625 4.75390625 C2 4 2 4 0 3 C0 2.01 0 1.02 0 0 Z " fill="#FCE3E5" transform="translate(175,135)"/>
<path d="M0 0 C-0.61277612 2.96175123 -1.25372522 4.38058783 -3 7 C-3.38499891 8.65549531 -3.72793135 10.3222433 -4 12 C-4.66 12 -5.32 12 -6 12 C-6.48979592 4.65306122 -6.48979592 4.65306122 -4.125 1.5 C-2 0 -2 0 0 0 Z " fill="#F4FAF3" transform="translate(98,95)"/>
<path d="M0 0 C1.9375 0.375 1.9375 0.375 4 1 C4.33 1.66 4.66 2.32 5 3 C7.02463255 3.65213292 7.02463255 3.65213292 9 4 C4.25 8.875 4.25 8.875 2 10 C2.04125 9.0925 2.0825 8.185 2.125 7.25 C2.00468444 4.1217954 1.6085292 2.61385994 0 0 Z " fill="#EE3560" transform="translate(29,143)"/>
<path d="M0 0 C5.4 -0.36 5.4 -0.36 7.875 1.125 C9.4682099 3.78034983 9.20214032 5.96789518 9 9 C8.34 9 7.68 9 7 9 C6.6596875 7.824375 6.6596875 7.824375 6.3125 6.625 C5.21875 3.78125 5.21875 3.78125 2.375 2.6875 C1.59125 2.460625 0.8075 2.23375 0 2 C0 1.34 0 0.68 0 0 Z " fill="#FDF3F4" transform="translate(65,10)"/>
<path d="M0 0 C0.66 0.33 1.32 0.66 2 1 C-1.3 4.3 -4.6 7.6 -8 11 C-8.99 10.67 -9.98 10.34 -11 10 C-9.73232923 8.70522938 -8.46073776 7.41429661 -7.1875 6.125 C-6.47980469 5.40570312 -5.77210937 4.68640625 -5.04296875 3.9453125 C-3 2 -3 2 0 0 Z " fill="#EE295B" transform="translate(36,19)"/>
<path d="M0 0 C0.99 0 1.98 0 3 0 C3.125 2.375 3.125 2.375 3 5 C2.34 5.66 1.68 6.32 1 7 C-1.125 6.625 -1.125 6.625 -3 6 C-1.125 1.125 -1.125 1.125 0 0 Z " fill="#ED174F" transform="translate(55,168)"/>
<path d="M0 0 C0.99 0 1.98 0 3 0 C2.74476126 1.62752231 2.47025506 3.25203196 2.1875 4.875 C2.03667969 5.77992187 1.88585937 6.68484375 1.73046875 7.6171875 C1 10 1 10 -2 12 C-1.85962479 10.18706911 -1.71255111 8.3746557 -1.5625 6.5625 C-1.48128906 5.55316406 -1.40007812 4.54382813 -1.31640625 3.50390625 C-1 1 -1 1 0 0 Z " fill="#FBD8DC" transform="translate(121,5)"/>
<path d="M0 0 C0.66 0 1.32 0 2 0 C2.36075949 4.44936709 2.36075949 4.44936709 0.8125 6.8125 C-1.55982525 8.36678206 -3.22041345 8.22537188 -6 8 C-6 7.34 -6 6.68 -6 6 C-5.195625 5.525625 -4.39125 5.05125 -3.5625 4.5625 C-0.7081924 3.20016328 -0.7081924 3.20016328 0 0 Z " fill="#FDEFF0" transform="translate(178,44)"/>
<path d="M0 0 C0.99 1.32 1.98 2.64 3 4 C1.125 7.875 1.125 7.875 0 9 C-1.99958364 9.04080783 -4.00045254 9.04254356 -6 9 C-5.34 8.01 -4.68 7.02 -4 6 C-3.01 6 -2.02 6 -1 6 C-0.67 4.02 -0.34 2.04 0 0 Z " fill="#F8BCC4" transform="translate(83,180)"/>
<path d="M0 0 C1.32 0 2.64 0 4 0 C4.125 2.875 4.125 2.875 4 6 C2 8 2 8 -0.625 8.125 C-1.40875 8.08375 -2.1925 8.0425 -3 8 C-2 6 -2 6 1 5 C1.33 4.01 1.66 3.02 2 2 C1.34 2 0.68 2 0 2 C0 1.34 0 0.68 0 0 Z " fill="#FDEEEF" transform="translate(178,143)"/>
<path d="M0 0 C0.66 0.66 1.32 1.32 2 2 C-0.64 2.33 -3.28 2.66 -6 3 C-6 2.34 -6 1.68 -6 1 C-8.31 1 -10.62 1 -13 1 C-13 0.67 -13 0.34 -13 0 C-11.39679026 -0.19551338 -9.79237014 -0.38111983 -8.1875 -0.5625 C-7.29417969 -0.66691406 -6.40085937 -0.77132812 -5.48046875 -0.87890625 C-3 -1 -3 -1 0 0 Z " fill="#E4F1E1" transform="translate(110,116)"/>
<path d="M0 0 C0.33 0 0.66 0 1 0 C1 3.96 1 7.92 1 12 C0.01 12 -0.98 12 -2 12 C-2.66 10.35 -3.32 8.7 -4 7 C-2.68 7 -1.36 7 0 7 C0 4.69 0 2.38 0 0 Z " fill="#FEFAFA" transform="translate(113,4)"/>
<path d="M0 0 C0.66 0.33 1.32 0.66 2 1 C2 2.65 2 4.3 2 6 C1.34 5.67 0.68 5.34 0 5 C-1.99960012 4.960008 -4.00047242 4.95653201 -6 5 C-6 4.01 -6 3.02 -6 2 C-4.35 2 -2.7 2 -1 2 C-0.67 1.34 -0.34 0.68 0 0 Z " fill="#F4859C" transform="translate(100,184)"/>
<path d="M0 0 C0.99 0.33 1.98 0.66 3 1 C3 1.99 3 2.98 3 4 C3.639375 4.12375 4.27875 4.2475 4.9375 4.375 C5.618125 4.58125 6.29875 4.7875 7 5 C7.33 5.66 7.66 6.32 8 7 C5.69 6.67 3.38 6.34 1 6 C0.67 4.02 0.34 2.04 0 0 Z " fill="#FBD8DC" transform="translate(133,17)"/>
<path d="M0 0 C0.33 0 0.66 0 1 0 C1.268125 1.11375 1.53625 2.2275 1.8125 3.375 C2.65809019 7.21840951 2.65809019 7.21840951 6 9 C4.00045254 9.04254356 1.99958364 9.04080783 0 9 C-1 8 -1 8 -1.125 4.5 C-1 1 -1 1 0 0 Z " fill="#FDEFF1" transform="translate(76,179)"/>
<path d="M0 0 C0.99 0.66 1.98 1.32 3 2 C2.443125 2.226875 1.88625 2.45375 1.3125 2.6875 C-1.63246684 4.35896766 -3.68156544 6.55276352 -6 9 C-6 5 -6 5 -4.6875 3.515625 C-3.125 2.34375 -1.5625 1.171875 0 0 Z " fill="#ED315E" transform="translate(45,156)"/>
<path d="M0 0 C0.33 0.66 0.66 1.32 1 2 C-1.70879335 3.35439668 -4.00933268 3.06501451 -7 3 C-7.33 2.01 -7.66 1.02 -8 0 C-4.71303767 -0.79953138 -3.28976808 -1.09658936 0 0 Z " fill="#EBF5E9" transform="translate(83,97)"/>
<path d="M0 0 C2.31 0.33 4.62 0.66 7 1 C6.67 1.66 6.34 2.32 6 3 C3.93359375 3.4140625 3.93359375 3.4140625 1.4375 3.625 C0.61121094 3.69976562 -0.21507812 3.77453125 -1.06640625 3.8515625 C-2.02353516 3.92503906 -2.02353516 3.92503906 -3 4 C-2.01 2.68 -1.02 1.36 0 0 Z " fill="#EE2A5D" transform="translate(16,74)"/>
<path d="M0 0 C0.66 0 1.32 0 2 0 C2.36923077 5.41538462 2.36923077 5.41538462 0.5 8.375 C0.005 8.91125 -0.49 9.4475 -1 10 C-1.9765625 3.9453125 -1.9765625 3.9453125 -2 2 C-1.34 1.34 -0.68 0.68 0 0 Z " fill="#FEF5F6" transform="translate(164,28)"/>
<path d="M0 0 C1.9451 2.91765 2.45276317 4.62537285 3 8 C2.01 8 1.02 8 0 8 C-0.66 5.69 -1.32 3.38 -2 1 C-1.34 0.67 -0.68 0.34 0 0 Z " fill="#FBDADE" transform="translate(133,177)"/>
<path d="M0 0 C2.96404505 2.80804268 5.44499019 5.18315774 7 9 C6.01 8.34 5.02 7.68 4 7 C3.01 7 2.02 7 1 7 C0.67 4.69 0.34 2.38 0 0 Z " fill="#EE2B5B" transform="translate(153,162)"/>
<path d="M0 0 C0.66 0 1.32 0 2 0 C1.67 2.97 1.34 5.94 1 9 C0.01 8.67 -0.98 8.34 -2 8 C-2.125 5.125 -2.125 5.125 -2 2 C-1.34 1.34 -0.68 0.68 0 0 Z " fill="#FDF4F5" transform="translate(11,85)"/>
<path d="M0 0 C1.32 0.33 2.64 0.66 4 1 C3.67 2.32 3.34 3.64 3 5 C2.67 4.67 2.34 4.34 2 4 C0.33382885 3.95936168 -1.33388095 3.957279 -3 4 C-3 3.34 -3 2.68 -3 2 C-2.01 2 -1.02 2 0 2 C0 1.34 0 0.68 0 0 Z " fill="#F591A6" transform="translate(98,179)"/>
<path d="M0 0 C0.99 0.33 1.98 0.66 3 1 C2.67 2.65 2.34 4.3 2 6 C1.34 5.67 0.68 5.34 0 5 C-0.99 6.32 -1.98 7.64 -3 9 C-2.44271087 5.65626525 -1.64826111 2.96687001 0 0 Z " fill="#EC0946" transform="translate(72,176)"/>
<path d="M0 0 C0.99 0 1.98 0 3 0 C3.33 1.98 3.66 3.96 4 6 C3.01 6 2.02 6 1 6 C0.67 4.02 0.34 2.04 0 0 Z " fill="#FAD2D7" transform="translate(125,175)"/>
<path d="M0 0 C2.31 0 4.62 0 7 0 C7.33 2.31 7.66 4.62 8 7 C6 6 6 6 5.125 4.0625 C3.77090236 1.57998766 2.57821507 1.03128603 0 0 Z " fill="#FDF0F1" transform="translate(78,177)"/>
<path d="M0 0 C1.32 0.33 2.64 0.66 4 1 C3.67 1.99 3.34 2.98 3 4 C3.66 4.33 4.32 4.66 5 5 C3.02 5.99 1.04 6.98 -1 8 C-1 4.48283697 -0.17554415 3.62878252 2 1 C1.34 0.67 0.68 0.34 0 0 Z " fill="#EE305B" transform="translate(159,155)"/>
<path d="M0 0 C0.33 0.66 0.66 1.32 1 2 C3.31 2 5.62 2 8 2 C4.36576791 4.32590854 1.22911669 4.16265833 -3 4 C-2.01 2.68 -1.02 1.36 0 0 Z " fill="#FEF8F9" transform="translate(187,91)"/>
<path d="M0 0 C0.66 0 1.32 0 2 0 C2.66 1.98 3.32 3.96 4 6 C3.01 6.33 2.02 6.66 1 7 C-1 4 -1 4 -0.625 1.8125 C-0.41875 1.214375 -0.2125 0.61625 0 0 Z " fill="#F9C8CE" transform="translate(15,61)"/>
<path d="M0 0 C1.32 0.66 2.64 1.32 4 2 C2.84826645 4.46800047 1.95216435 6.04783565 0 8 C-0.38063221 5.6739143 -0.71269945 3.33944736 -1 1 C-0.67 0.67 -0.34 0.34 0 0 Z " fill="#FCE7E9" transform="translate(41,25)"/>
<path d="M0 0 C0.598125 0.350625 1.19625 0.70125 1.8125 1.0625 C1.8125 2.0525 1.8125 3.0425 1.8125 4.0625 C-1.1875 4.0625 -1.1875 4.0625 -2.875 2.5625 C-3.308125 2.0675 -3.74125 1.5725 -4.1875 1.0625 C-4.5175 1.7225 -4.8475 2.3825 -5.1875 3.0625 C-5.1875 2.0725 -5.1875 1.0825 -5.1875 0.0625 C-2.1875 -0.9375 -2.1875 -0.9375 0 0 Z " fill="#FBD8DB" transform="translate(143.1875,11.9375)"/>
<path d="M0 0 C0.99 0.33 1.98 0.66 3 1 C3.33 2.65 3.66 4.3 4 6 C2.68 6.33 1.36 6.66 0 7 C0 4.69 0 2.38 0 0 Z " fill="#FAD1D6" transform="translate(137,171)"/>
<path d="M0 0 C0.66 0.66 1.32 1.32 2 2 C1.96712417 4.72869407 1.43602229 7.2966618 1 10 C-0.85064319 6.87703962 -1.29356154 4.62059232 -1 1 C-0.67 0.67 -0.34 0.34 0 0 Z " fill="#FAD5D9" transform="translate(152,162)"/>
<path d="M0 0 C0.66 0.33 1.32 0.66 2 1 C2.625 4.0625 2.625 4.0625 3 7 C1.35 7 -0.3 7 -2 7 C-1.34 4.69 -0.68 2.38 0 0 Z " fill="#F8B6BE" transform="translate(180,122)"/>
<path d="M0 0 C-0.33 1.32 -0.66 2.64 -1 4 C-3.64 4 -6.28 4 -9 4 C-6.1329385 1.1329385 -4.08408532 0 0 0 Z " fill="#FDF4F4" transform="translate(23,119)"/>
<path d="M0 0 C2.125 0.9375 2.125 0.9375 4 2 C3.01 2 2.02 2 1 2 C0.67 3.32 0.34 4.64 0 6 C-0.99 6 -1.98 6 -3 6 C-2.625 3.5625 -2.625 3.5625 -2 1 C-1.34 0.67 -0.68 0.34 0 0 Z " fill="#FDF1F2" transform="translate(91,10)"/>
<path d="M0 0 C1.98 0 3.96 0 6 0 C6 0.99 6 1.98 6 3 C4.02 3 2.04 3 0 3 C0 2.01 0 1.02 0 0 Z " fill="#FACDD2" transform="translate(107,183)"/>
<path d="M0 0 C2.96175123 0.61277612 4.38058783 1.25372522 7 3 C7 3.66 7 4.32 7 5 C4.03824877 4.38722388 2.61941217 3.74627478 0 2 C0 1.34 0 0.68 0 0 Z " fill="#FCE5E7" transform="translate(46,159)"/>
<path d="M0 0 C0.99 0.33 1.98 0.66 3 1 C1.02 3.97 1.02 3.97 -1 7 C-1.66 6.67 -2.32 6.34 -3 6 C-1.125 1.125 -1.125 1.125 0 0 Z " fill="#FDF4F5" transform="translate(37,149)"/>
<path d="M0 0 C0.33 0 0.66 0 1 0 C1 1.65 1 3.3 1 5 C-0.65 5.66 -2.3 6.32 -4 7 C-3.67 5.68 -3.34 4.36 -3 3 C-2.01 3 -1.02 3 0 3 C0 2.01 0 1.02 0 0 Z " fill="#FBDBDE" transform="translate(21,89)"/>
<path d="M0 0 C0.33 0 0.66 0 1 0 C1 1.98 1 3.96 1 6 C-0.98 6.99 -0.98 6.99 -3 8 C-3 5.69 -3 3.38 -3 1 C-2.67 2.32 -2.34 3.64 -2 5 C-1.34 5 -0.68 5 0 5 C0 3.35 0 1.7 0 0 Z " fill="#F6A9B4" transform="translate(74,14)"/>
<path d="M0 0 C0.99 0 1.98 0 3 0 C2.67 2.97 2.34 5.94 2 9 C1.67 9 1.34 9 1 9 C0.67 6.03 0.34 3.06 0 0 Z " fill="#FAD5D9" transform="translate(128,7)"/>
<path d="M0 0 C0.66 0 1.32 0 2 0 C2.33 2.97 2.66 5.94 3 9 C1.22293791 6.33440687 0.12451727 3.9719385 -1 1 C-0.67 0.67 -0.34 0.34 0 0 Z " fill="#EC0A47" transform="translate(20,135)"/>
<path d="M0 0 C0.66 0.33 1.32 0.66 2 1 C0.68 2.65 -0.64 4.3 -2 6 C-2 5.34 -2 4.68 -2 4 C-2.99 3.67 -3.98 3.34 -5 3 C-2.625 1.4375 -2.625 1.4375 0 0 Z " fill="#95A96A" transform="translate(167,127)"/>
<path d="M0 0 C1.5 1.3125 1.5 1.3125 3 3 C3 3.99 3 4.98 3 6 C3.99 6.33 4.98 6.66 6 7 C3.625 6.75 3.625 6.75 1 6 C-0.375 4.0625 -0.375 4.0625 -1 2 C-0.67 1.34 -0.34 0.68 0 0 Z " fill="#F9C9CE" transform="translate(169,46)"/>
<path d="M0 0 C3.93846154 3.32307692 3.93846154 3.32307692 4.25 6.75 C4.1675 7.4925 4.085 8.235 4 9 C3.67 7.68 3.34 6.36 3 5 C2.01 5 1.02 5 0 5 C0 4.34 0 3.68 0 3 C-0.66 2.67 -1.32 2.34 -2 2 C-1.34 2 -0.68 2 0 2 C0 1.34 0 0.68 0 0 Z " fill="#F9C7CC" transform="translate(177,39)"/>
</svg>
